#!OML:ASF H:\Punching\Project 1\Capture day 1\Session 1\female.ASF
:FULLY-SPECIFIED
:DEGREES
1219
root 1.30806 15.3264 3.04333 -14.4292 16.285 -4.999
lowerback 4.45936 -2.58829 -3.25381
upperback 1.46365 -3.51982 6.52583
thorax -0.366638 -1.80476 8.84422
lowerneck -8.20626 -1.53563 7.65206
upperneck 43.3457 -5.26884 2.11893
head 17.2155 -0.492366 -1.20609
rclavicle 4.77083e-015 -2.8625e-014
rhumerus -21.0947 7.13167 -62.0762
rradius 133.905
rwrist -14.386
rhand -32.8397 10.5002
rfingers 7.12502
rthumb -6.05946 -19.3931
lclavicle 4.77083e-015 -2.8625e-014
lhumerus 2.65865 -36.5861 78.91
lradius 133.339
lwrist -9.05606
lhand -31.3728 0.619512
lfingers 7.12502
lthumb -4.64309 30.5486
rfemur -91.8499 -17.5094 21.6384
rtibia 121.42
rfoot 15.2152 -0.230993
rtoes -4.24022
lfemur -1.05869 -17.1034 -27.9832
ltibia 29.6098
lfoot -9.68114 3.10289
ltoes 13.0223
1220
root 1.30378 15.3468 3.1167 -15.4431 16.7241 -5.42896
lowerback 4.57677 -2.67823 -3.41552
upperback 1.83966 -3.66033 6.71966
thorax 0.00905542 -1.90257 9.14978
lowerneck -8.27708 -1.65507 7.64385
upperneck 43.3396 -5.55876 2.35082
head 17.2387 -0.578215 -1.14455
rclavicle 9.74045e-015 -1.74931e-014
rhumerus -21.3904 6.87417 -62.1748
rradius 133.95
rwrist -14.4149
rhand -32.8794 10.5889
rfingers 7.12502
rthumb -6.09777 -19.3033
lclavicle 9.74045e-015 -1.74931e-014
lhumerus 2.96685 -37.25 79.7608
lradius 133.017
lwrist -9.15758
lhand -31.4469 0.503015
lfingers 7.12502
lthumb -4.71464 30.4306
rfemur -92.8473 -16.9201 21.3292
rtibia 118.663
rfoot 17.1819 -0.187515
rtoes -5.0431
lfemur 0.642711 -17.3284 -27.961
ltibia 28.8587
lfoot -9.62836 3.01429
ltoes 13.0595
1221
root 1.30186 15.3686 3.18838 -16.4001 17.0721 -5.82119
lowerback 4.67023 -2.7457 -3.54759
upperback 2.17093 -3.76865 6.88163
thorax 0.343867 -1.98249 9.40324
lowerneck -8.31882 -1.77033 7.65831
upperneck 43.3663 -5.84473 2.57591
head 17.2748 -0.658017 -1.08888
rclavicle -2.10712e-014 4.13472e-014
rhumerus -21.7352 6.67886 -62.3498
rradius 133.995
rwrist -14.4937
rhand -32.9216 10.6893
rfingers 7.12502
rthumb -6.13849 -19.2017
lclavicle -2.10712e-014 4.13472e-014
lhumerus 3.16922 -37.8815 80.6065
lradius 132.706
lwrist -9.20496
lhand -31.4675 0.453846
lfingers 7.12502
lthumb -4.73461 30.3809
rfemur -93.5183 -16.2953 20.8758
rtibia 115.548
rfoot 19.0471 0.0737041
rtoes -6.09635
lfemur 2.33449 -17.4887 -27.9506
ltibia 28.0082
lfoot -9.52478 2.94424
ltoes 13.1032
1222
root 1.30195 15.3921 3.25726 -17.2749 17.3433 -6.17671
lowerback 4.73085 -2.7984 -3.65149
upperback 2.44714 -3.85448 7.01552
thorax 0.632994 -2.04826 9.60922
lowerneck -8.33104 -1.8813 7.69065
upperneck 43.4303 -6.12759 2.79731
head 17.3264 -0.732202 -1.03674
rclavicle -4.94974e-014 6.52014e-014
rhumerus -22.1052 6.5509 -62.6017
rradius 134.022
rwrist -14.6114
rhand -32.9645 10.801
rfingers 7.12502
rthumb -6.17995 -19.0889
lclavicle -4.94974e-014 6.52014e-014
lhumerus 3.25475 -38.4657 81.4507
lradius 132.427
lwrist -9.18756
lhand -31.3898 0.400755
lfingers 7.12502
lthumb -4.65954 30.3295
rfemur -93.8921 -15.6459 20.2995
rtibia 112.076
rfoot 20.782 0.511861
rtoes -7.26291
lfemur 3.97415 -17.5882 -27.9361
ltibia 27.0711
lfoot -9.36942 2.8711
ltoes 13.1506
1223
root 1.30378 15.4166 3.32259 -18.0465 17.56 -6.49734
lowerback 4.75304 -2.84393 -3.72517
upperback 2.65983 -3.92736 7.12055
thorax 0.871385 -2.10355 9.76527
lowerneck -8.32547 -1.98778 7.74202
upperneck 43.5427 -6.41124 3.01685
head 17.4035 -0.800932 -0.9881
rclavicle 2.14687e-014 5.56597e-014
rhumerus -22.4929 6.48284 -62.9292
rradius 134.026
rwrist -14.7502
rhand -33.0039 10.928
rfingers 7.12502
rthumb -6.218 -18.9607
lclavicle 2.14687e-014 5.56597e-014
lhumerus 3.22633 -38.9928 82.2907
lradius 132.185
lwrist -9.09113
lhand -31.1699 0.315931
lfingers 7.12502
lthumb -4.4472 30.2492
rfemur -94.0041 -14.9938 19.6159
rtibia 108.257
rfoot 22.3312 1.16003
rtoes -8.59507
lfemur 5.51934 -17.643 -27.9088
ltibia 26.0748
lfoot -9.17073 2.78353
ltoes 13.2
1224
root 1.30654 15.4411 3.38365 -18.6964 17.7463 -6.7834
lowerback 4.74027 -2.88961 -3.77888
upperback 2.80005 -3.99701 7.19807
thorax 1.04982 -2.15237 9.8792
lowerneck -8.29998 -2.09102 7.80391
upperneck 43.6995 -6.70198 3.24984
head 17.5049 -0.866243 -0.935152
rclavicle -2.36554e-014 3.81667e-014
rhumerus -22.8849 6.46891 -63.3383
rradius 133.996
rwrist -14.8765
rhand -33.013 11.0098
rfingers 7.12502
rthumb -6.22677 -18.8787
lclavicle -2.36554e-014 3.81667e-014
lhumerus 3.08563 -39.4481 83.1236
lradius 132.007
lwrist -8.85642
lhand -30.714 0.111195
lfingers 7.12502
lthumb -4.00698 30.0533
rfemur -93.8909 -14.3574 18.8427
rtibia 104.101
rfoot 23.6638 1.90935
rtoes -10.0328
lfemur 6.92369 -17.6645 -27.8606
ltibia 25.0552
lfoot -8.93991 2.6685
ltoes 13.2443
1225
root 1.30987 15.4643 3.44019 -19.2142 17.9208 -7.03504
lowerback 4.67661 -2.93447 -3.80925
upperback 2.87404 -4.06201 7.23945
thorax 1.18194 -2.19412 9.93781
lowerneck -8.26901 -2.19711 7.88692
upperneck 43.895 -7.01821 3.50631
head 17.6323 -0.932413 -0.878086
rclavicle -4.81059e-014 1.43125e-014
rhumerus -23.2798 6.47171 -63.8394
rradius 133.927
rwrist -14.953
rhand -33.0097 11.1018
rfingers 7.12502
rthumb -6.22355 -18.7868
lclavicle -4.81059e-014 1.43125e-014
lhumerus 2.87527 -39.8451 83.9173
lradius 131.899
lwrist -8.44351
lhand -30.0024 -0.209296
lfingers 7.12502
lthumb -3.31981 29.7446
rfemur -93.5846 -13.7524 17.9933
rtibia 99.6269
rfoot 24.7512 2.48191
rtoes -11.2743
lfemur 8.15356 -17.6723 -27.7938
ltibia 24.054
lfoot -8.69112 2.52862
ltoes 13.2904
